<!DOCTYPE svg PUBLIC "-//W3C//DTD SVG 1.1//EN" "http://www.w3.org/Graphics/SVG/1.1/DTD/svg11.dtd">
<!-- Uploaded to: SVG Repo, www.svgrepo.com, Transformed by: SVG Repo Mixer Tools -->
<svg width="800px" height="800px" viewBox="0 0 1024 1024" class="icon" version="1.1" xmlns="http://www.w3.org/2000/svg" fill="#000000">
<g id="SVGRepo_bgCarrier" stroke-width="0"/>
<g id="SVGRepo_tracerCarrier" stroke-linecap="round" stroke-linejoin="round"/>
<g id="SVGRepo_iconCarrier">
<path d="M916.621716 824.474628c15.698298 15.698298-205.490725-184.768971-205.490725-184.768971s-14.7564-8.94803-14.7564 50.705504v138.145025h153.215391a98.271348 98.271348 0 0 1 94.18979 98.742296 96.387552 96.387552 0 0 1-94.18979 96.701518H240.025058a96.387552 96.387552 0 0 1-94.18979-96.701518 98.271348 98.271348 0 0 1 94.18979-98.742296h160.750575v-138.145025c0-59.653534-22.134601-50.705504-22.1346-50.705504S157.452009 840.172927 173.150307 824.474628c-96.387552 72.997087-121.818795-42.856354-77.549593-92.305994 28.727886-26.059175 214.595738-175.820941 214.595738-175.820941s47.094895-224.642649 237.044305-225.270581c0-0.941898 0-1.098881 0 0 0-1.098881 0-0.941898 0 0 190.263376 0 231.863866 225.270581 231.863866 225.270581s185.867852 149.761766 214.595738 175.820941c44.269201 49.44964 18.837958 165.460064-77.549594 92.305994m-369.380959-536.881803a118.208186 118.208186 0 1 1 118.051203-118.208186 118.208186 118.208186 0 0 1-117.737237 118.208186z" fill="#18b6f680"/>
<path d="M802.338104 1010.185497H192.77318a115.22551 115.22551 0 0 1-112.242833-115.068526 118.836118 118.836118 0 0 1 21.03572-67.3457c-40.187644 15.698298-63.735091-1.56983-73.15407-11.773724-28.256937-31.396597-25.431243-93.090909 6.122336-128.255097l1.412847-1.412847c26.530124-24.018396 180.373448-148.348919 210.514181-172.681282 9.732945-37.989882 65.461904-222.444887 238.771117-232.805764v-2.040779h10.51786l4.552507-2.66871 5.965353 3.453625h3.924575c175.506975 7.221217 229.195156 194.501916 238.457151 233.11973 30.454699 24.646328 183.984056 148.505902 210.357198 172.681282l1.412847 1.412847c31.396597 35.164188 34.379273 97.486433 6.122336 128.255097-9.418979 10.203894-32.966426 28.099954-73.15407 11.773724a118.993101 118.993101 0 0 1 21.03572 67.3457 115.22551 115.22551 0 0 1-112.085851 116.010424zM338.610372 589.000153a29.826767 29.826767 0 0 1 12.244673 4.866473c14.285451 9.732945 21.03572 30.140733 21.035719 64.363023v156.982983H192.77318a80.061321 80.061321 0 0 0-75.508815 80.375288 78.491492 78.491492 0 0 0 75.508815 78.491491h609.564924a78.491492 78.491492 0 0 0 75.508815-78.491491 80.218304 80.218304 0 0 0-75.508815-80.375288H630.598721v-156.982983c0-31.396597 2.982677-62.793193 25.117277-68.758547a22.448567 22.448567 0 0 1 20.250805 4.395524c76.136747 68.91553 191.205274 172.681282 204.077878 183.827073 12.715622 9.575962 43.798252 30.140733 59.182585 13.343554s14.128468-54.944044-5.80837-78.491492c-30.297716-27.315039-211.142113-172.681282-213.025909-174.408094l-5.337421-4.238541-1.255864-6.750268a357.607236 357.607236 0 0 0-42.856355-107.062395c-41.600491-67.816649-98.742296-102.509888-170.01257-103.13782h-2.825694c-170.640503 1.412847-216.008585 202.037099-217.735398 210.671164l-3.13966 14.442434h-8.320098c-29.669784 23.861413-180.530431 145.680208-208.002453 170.48352-19.936839 23.233482-20.093822 62.793193-5.80837 78.491492s47.094895-3.767592 59.182585-13.343554c11.930707-10.046911 109.888088-98.271348 204.077878-183.513107l13.343554-12.08769z m-5.965354 42.228423l-96.387551 87.125556-68.130615 61.380346-2.040779 1.883796a103.765752 103.765752 0 0 1 26.687107-3.453626h143.011498v-119.778016a119.46405 119.46405 0 0 0-3.13966-27.315039z m469.693086 146.779089a103.765752 103.765752 0 0 1 26.687108 3.453626l-3.610609-3.296643-70.956308-63.892074-86.026675-78.491492c0 5.337421-0.941898 12.401656-0.941898 21.663652v119.778016h134.848382zM499.831896 273.150391a136.575195 136.575195 0 1 1 0-273.150391 136.575195 136.575195 0 0 1 0 273.150391z m0-236.416373a99.841177 99.841177 0 1 0 0 199.682355 99.841177 99.841177 0 0 0 0-198.740457z" fill="#006ce9"/>
<path d="M590.56806 1010.970412H195.755857a116.167408 116.167408 0 1 1 0-232.177832h394.812203a116.167408 116.167408 0 1 1 0 232.177832zM195.755857 815.526598a79.354898 79.354898 0 1 0 0 158.709796h394.812203a79.354898 79.354898 0 1 0 0-158.709796H195.755857z" fill="#006ce9"/>
</g>
</svg>